<?xml version="1.0" encoding="utf-8"?>
<!-- Generator: Adobe Illustrator 22.0.0, SVG Export Plug-In . SVG Version: 6.00 Build 0)  -->
<svg version="1.1" id="Layer_1" xmlns="http://www.w3.org/2000/svg" xmlns:xlink="http://www.w3.org/1999/xlink" x="0px" y="0px"
	 viewBox="0 0 50 50" style="enable-background:new 0 0 50 50;" xml:space="preserve">
<style type="text/css">
	.st0{fill:#D32F2F;}
	.st1{fill:#FFFFFF;}
	.st2{fill:#4CAF50;}
	.st3{fill:#F2F2F2;}
	.st4{fill:#0277BD;}
	.st5{fill:#26C6DA;}
	.st6{fill:#FF8F00;}
	.st7{fill:#FFBD76;}
	.st8{fill:#5E35B1;}
	.st9{fill:#AB47BC;}
</style>
<g>
	<g>
		<path class="st6" d="M45.4,48.6H4.6c-1.5,0-2.8-1.3-2.8-2.8V4.2c0-1.5,1.3-2.8,2.8-2.8h40.8c1.5,0,2.8,1.3,2.8,2.8v41.7
			C48.2,47.4,47,48.6,45.4,48.6z"/>
	</g>
	<g>
		<g>
			<path class="st6" d="M10.9,8.3v33.4h28.1V16.5l-8.4-8.2C30.7,8.3,10.9,8.4,10.9,8.3z"/>
			<path class="st7" d="M39.1,42.7H10.9c-0.6,0-1-0.4-1-1V8.3c0-0.6,0.6-1.1,1.1-1c1,0,12.2,0,19.6,0c0,0,0,0,0,0
				c0.3,0,0.5,0.1,0.7,0.3l8.4,8.2c0.2,0.2,0.3,0.4,0.3,0.7v25.2C40.1,42.3,39.6,42.7,39.1,42.7z M11.9,40.7h26.1V16.9l-7.8-7.6
				c-11.5,0-16.3,0.1-18.3,0V40.7z"/>
		</g>
		<g>
			<polyline class="st6" points="28.7,8.5 28.7,18.2 38.4,18.2 			"/>
			<path class="st7" d="M38.4,19.2h-9.7c-0.6,0-1-0.4-1-1V8.5h2v8.7h8.7V19.2z"/>
		</g>
	</g>
	<g>
		<g>
			<path class="st1" d="M16.8,10.8v9.4c0,1.6,1.1,2.9,2.5,2.9s2.5-1.3,2.5-2.9V20l0,0l0-10.7c0-2.4-1.9-4.3-4.3-4.3h-0.3
				c-2.4,0-4.3,1.9-4.3,4.3v11.1v1.9v0.9c0,3.6,2.9,6.5,6.5,6.5c3.6,0,6.5-2.9,6.5-6.5l0-13.4h-1l0,13.4c0,3-2.5,5.5-5.5,5.5
				c-3,0-5.5-2.5-5.5-5.5v-0.6l0,0c0-0.1,0-0.2,0-0.3V20V9.3c0-1.8,1.5-3.3,3.3-3.3h0.3c1.8,0,3.3,1.5,3.3,3.3l0,1.4l0,0
				c0,0,0,0.1,0,0.1v9.4c0,1-0.7,1.7-1.5,1.7s-1.5-0.8-1.5-1.7v-9.4"/>
		</g>
		<g>
			<path class="st3" d="M18.3,10.8v9.4c0,0.7,0.5,1.2,1,1.2s1-0.6,1-1.2l0-10.9c0-1.6-1.3-2.8-2.8-2.8h-0.3c-1.6,0-2.8,1.3-2.8,2.8
				v13.9c0,2.8,2.2,5,5,5c2.8,0,5-2.2,5-5l0-13.9h2l0,13.9c0,3.9-3.1,7-7,7c-3.9,0-7-3.1-7-7V9.3c0-2.7,2.2-4.8,4.8-4.8h0.3
				c2.7,0,4.8,2.2,4.8,4.8l0,11.2h0c-0.2,1.7-1.5,3-3,3c-1.7,0-3-1.5-3-3.4v-9.4"/>
		</g>
	</g>
</g>
</svg>
