<?xml version="1.0" encoding="utf-8"?>
<!-- Generator: Adobe Illustrator 22.0.0, SVG Export Plug-In . SVG Version: 6.00 Build 0)  -->
<svg version="1.1" id="Layer_1" xmlns="http://www.w3.org/2000/svg" xmlns:xlink="http://www.w3.org/1999/xlink" x="0px" y="0px"
	 viewBox="0 0 50 50" style="enable-background:new 0 0 50 50;" xml:space="preserve">
<style type="text/css">
	.st0{fill:#D32F2F;}
	.st1{fill:#FFFFFF;}
	.st2{fill:#4CAF50;}
	.st3{fill:#F2F2F2;}
	.st4{fill:#0277BD;}
	.st5{fill:#26C6DA;}
	.st6{fill:#FF8F00;}
	.st7{fill:#FFBD76;}
	.st8{fill:#5E35B1;}
	.st9{fill:#AB47BC;}
</style>
<g>
	<g>
		<path class="st5" d="M45.4,48.6H4.6c-1.5,0-2.8-1.3-2.8-2.8V4.2c0-1.5,1.3-2.8,2.8-2.8h40.8c1.5,0,2.8,1.3,2.8,2.8v41.7
			C48.2,47.4,47,48.6,45.4,48.6z"/>
	</g>
	<g>
		<path class="st1" d="M43.5,38.9H6.5c-0.6,0-1-0.4-1-1V12.1c0-0.6,0.4-1,1-1h37.1c0.6,0,1,0.4,1,1v25.8
			C44.5,38.4,44.1,38.9,43.5,38.9z M7.5,36.9h35.1V13.1H7.5V36.9z"/>
	</g>
	<g>
		<polygon class="st1" points="10,34.1 15.8,19.9 21.7,27.6 26.2,22.1 36.5,34.1 		"/>
	</g>
	<g>
		<circle class="st1" cx="35.5" cy="20" r="3.2"/>
	</g>
</g>
</svg>
