<?xml version="1.0" encoding="utf-8"?>
<!-- Generator: Adobe Illustrator 22.0.0, SVG Export Plug-In . SVG Version: 6.00 Build 0)  -->
<svg version="1.1" id="Layer_1" xmlns="http://www.w3.org/2000/svg" xmlns:xlink="http://www.w3.org/1999/xlink" x="0px" y="0px"
	 viewBox="0 0 50 50" style="enable-background:new 0 0 50 50;" xml:space="preserve">
<style type="text/css">
	.st0{fill:#D32F2F;}
	.st1{fill:#FFFFFF;}
	.st2{fill:#4CAF50;}
	.st3{fill:#F2F2F2;}
	.st4{fill:#0277BD;}
	.st5{fill:#26C6DA;}
	.st6{fill:#FF8F00;}
	.st7{fill:#FFBD76;}
	.st8{fill:#5E35B1;}
	.st9{fill:#AB47BC;}
</style>
<g>
	<path class="st9" d="M45.4,48.6H4.6c-1.5,0-2.8-1.3-2.8-2.8l0-41.7c0-1.5,1.3-2.8,2.8-2.8h40.8c1.5,0,2.8,1.3,2.8,2.8v41.7
		C48.2,47.4,47,48.6,45.4,48.6z"/>
	<g>
		<path class="st1" d="M25.2,17.8h6.4c-1.5-4.3-4.1-7.2-5.1-8.2c-0.4,0-0.8-0.1-1.2-0.1V17.8z"/>
		<path class="st1" d="M16.7,24.8h7.4v-6h-6.7C16.9,20.5,16.6,22.5,16.7,24.8z"/>
		<path class="st1" d="M25.2,24.8h7.4c0.1-2.2-0.2-4.2-0.7-6h-6.7V24.8z"/>
		<path class="st1" d="M32.6,17.8h6.1c-2.2-4.1-6.1-7-10.7-8C29.4,11.3,31.4,14,32.6,17.8z"/>
		<path class="st1" d="M24.2,31.8v-6h-7.4c0.2,1.9,0.6,3.9,1.4,6H24.2z"/>
		<path class="st1" d="M17.1,31.8c-0.7-2.1-1.1-4.1-1.3-6H9.5c0.1,2.1,0.6,4.2,1.5,6H17.1z"/>
		<path class="st1" d="M10.8,18.8c-0.8,1.8-1.3,3.9-1.3,6h6.3c-0.1-2.2,0.2-4.2,0.7-6H10.8z"/>
		<path class="st1" d="M24.2,17.8V9.5c-0.4,0-0.9,0.1-1.3,0.1c-1.2,1.1-3.7,3.9-5.1,8.1H24.2z"/>
		<path class="st1" d="M32.9,18.8c0.5,1.8,0.8,3.8,0.7,6h6.9c0-2.1-0.5-4.2-1.3-6H32.9z"/>
		<path class="st1" d="M17.5,32.8h-5.9c2.1,3.7,5.7,6.4,9.9,7.3C19.7,37.5,18.4,35.1,17.5,32.8z"/>
		<path class="st1" d="M16.8,17.8c1.2-3.6,3.1-6.2,4.4-7.8c-4.3,1.1-7.9,3.9-9.9,7.8H16.8z"/>
		<path class="st1" d="M31.9,32.8c-0.9,2.4-2.2,4.9-4.1,7.5c4.5-0.8,8.4-3.6,10.6-7.5H31.9z"/>
		<path class="st1" d="M30.8,32.8h-5.6v7.7c0.4,0,0.8,0,1.2-0.1C28.4,37.7,29.8,35.2,30.8,32.8z"/>
		<path class="st1" d="M40.5,25.8h-7c-0.1,1.9-0.5,3.9-1.3,6h6.7C39.8,29.9,40.4,27.9,40.5,25.8z"/>
		<path class="st1" d="M24.2,40.5v-7.7h-5.6c1,2.4,2.4,4.9,4.3,7.6C23.3,40.4,23.7,40.4,24.2,40.5z"/>
		<path class="st1" d="M32.5,25.8h-7.3v6h6C31.9,29.6,32.3,27.6,32.5,25.8z"/>
	</g>
</g>
</svg>
