<?xml version="1.0" encoding="utf-8"?>
<!-- Generator: Adobe Illustrator 22.0.0, SVG Export Plug-In . SVG Version: 6.00 Build 0)  -->
<svg version="1.1" id="Layer_1" xmlns="http://www.w3.org/2000/svg" xmlns:xlink="http://www.w3.org/1999/xlink" x="0px" y="0px"
	 viewBox="0 0 50 50" style="enable-background:new 0 0 50 50;" xml:space="preserve">
<style type="text/css">
	.st0{fill:#D32F2F;}
	.st1{fill:#FFFFFF;}
	.st2{fill:#4CAF50;}
	.st3{fill:#F2F2F2;}
	.st4{fill:#0277BD;}
	.st5{fill:#26C6DA;}
	.st6{fill:#FF8F00;}
	.st7{fill:#FFBD76;}
	.st8{fill:#5E35B1;}
	.st9{fill:#AB47BC;}
</style>
<g>
	<g>
		<path class="st4" d="M45.4,48.6H4.6c-1.5,0-2.8-1.3-2.8-2.8V4.2c0-1.5,1.3-2.8,2.8-2.8h40.8c1.5,0,2.8,1.3,2.8,2.8v41.7
			C48.2,47.4,47,48.6,45.4,48.6z"/>
	</g>
	<path class="st1" d="M39.8,15.8l-8.4-8.2c-0.2-0.2-0.4-0.3-0.7-0.3c0,0,0,0,0,0c-7.4,0-18.6,0.1-19.6,0c-0.6-0.1-1.1,0.4-1.1,1
		v33.4c0,0.6,0.4,1,1,1h28.1c0.6,0,1-0.4,1-1V16.5C40.1,16.3,39.9,16,39.8,15.8z M38.1,16.9v0.2h-8.3V9.3c0.2,0,0.3,0,0.5,0
		L38.1,16.9z M11.9,40.7V9.3c1.9,0.1,6.1,0.1,15.8,0v8.9c0,0.6,0.4,1,1,1h9.3v21.5H11.9z"/>
	<g>
		<polygon class="st3" points="32.7,25.1 28.7,25.1 28.7,26.6 29.5,26.6 28.1,33 26.3,25.7 23.8,25.7 21.9,32.9 20.5,26.6 
			21.3,26.6 21.3,25.1 17.3,25.1 17.3,26.6 18.3,26.6 20.6,36.2 22.9,36.2 25,28.4 27.1,36.2 29.3,36.2 31.6,26.6 32.7,26.6 		"/>
	</g>
</g>
</svg>
