<?xml version="1.0" encoding="utf-8"?>
<!-- Generator: Adobe Illustrator 22.0.0, SVG Export Plug-In . SVG Version: 6.00 Build 0)  -->
<svg version="1.1" id="Layer_1" xmlns="http://www.w3.org/2000/svg" xmlns:xlink="http://www.w3.org/1999/xlink" x="0px" y="0px"
	 viewBox="0 0 50 50" style="enable-background:new 0 0 50 50;" xml:space="preserve">
<style type="text/css">
	.st0{fill:#D32F2F;}
	.st1{fill:#FFFFFF;}
	.st2{fill:#4CAF50;}
	.st3{fill:#F2F2F2;}
	.st4{fill:#0277BD;}
	.st5{fill:#26C6DA;}
	.st6{fill:#FF8F00;}
	.st7{fill:#FFBD76;}
	.st8{fill:#5E35B1;}
	.st9{fill:#AB47BC;}
</style>
<g>
	<g>
		<path class="st8" d="M45.4,48.6H4.6c-1.5,0-2.8-1.3-2.8-2.8l0-41.7c0-1.5,1.3-2.8,2.8-2.8h40.8c1.5,0,2.8,1.3,2.8,2.8v41.7
			C48.2,47.4,47,48.6,45.4,48.6z"/>
	</g>
	<g>
		<path class="st1" d="M17.6,40.4v-0.9l3.6-4.5c0.3-0.3,0.5-0.6,0.7-0.8H18v-0.8h5.1v0.8l-4,4.9l-0.4,0.5h4.5v0.8H17.6z"/>
		<path class="st1" d="M24.4,40.4v-7.1h0.9v7.1H24.4z"/>
		<path class="st1" d="M26.9,40.4v-7.1h2.7c0.5,0,0.8,0,1.1,0.1c0.3,0.1,0.6,0.2,0.9,0.3c0.2,0.2,0.4,0.4,0.6,0.7
			c0.1,0.3,0.2,0.6,0.2,1c0,0.6-0.2,1.1-0.6,1.5c-0.4,0.4-1.1,0.6-2.1,0.6h-1.8v2.9H26.9z M27.9,36.7h1.8c0.6,0,1-0.1,1.3-0.3
			s0.4-0.5,0.4-0.9c0-0.3-0.1-0.5-0.2-0.8c-0.1-0.2-0.3-0.3-0.6-0.4c-0.2,0-0.4-0.1-0.9-0.1h-1.8V36.7z"/>
	</g>
	<g>
		<path class="st1" d="M32.3,44H17.2c-0.3,0-0.5-0.2-0.5-0.5s0.2-0.5,0.5-0.5h15.2c0.3,0,0.5,0.2,0.5,0.5S32.6,44,32.3,44z"/>
	</g>
	<g>
		<path class="st1" d="M31.8,31.4h-14v-7.9h14V31.4z M19.8,29.4h10v-3.9h-10V29.4z"/>
	</g>
	<g>
		<rect x="18" y="17.7" class="st3" width="7.1" height="3.7"/>
	</g>
	<g>
		<rect x="25" y="12.7" class="st3" width="7.1" height="3.7"/>
	</g>
	<g>
		<rect x="18" y="7.7" class="st3" width="7.1" height="3.7"/>
	</g>
</g>
</svg>
